<svg xmlns="http://www.w3.org/2000/svg" viewBox="0 0 122.16 128.82"><defs><style>.cls-1{fill:#5b6670}</style></defs><g id="Layer_2" data-name="Layer 2"><g id="Layer_1-2" data-name="Layer 1"><path class="cls-1" d="M108.17 47.19H93V31.75a16.63 16.63 0 0 0-16.57-16.61H63.84a16.63 16.63 0 0 0-16.61 16.61v7.53H32.1v-7.53A31.78 31.78 0 0 1 63.84 0h12.59a31.78 31.78 0 0 1 31.74 31.75z"/><path d="M122.16 59.09a6.05 6.05 0 0 0-6-6.06H54.67v-6.16a2.19 2.19 0 0 0-2.18-2.18H18.88a2.19 2.19 0 0 0-2.18 2.18v14.57l51.59-.3a10.84 10.84 0 0 1 1.13.06l20.17-.12a13.38 13.38 0 0 1 12.13 8.2l19.53 52.28a9.3 9.3 0 0 1 .6 3 5.84 5.84 0 0 0 .31-1.88z" fill="#ca962b"/><path d="M89.62 66.08L4 66.58c-3.07 0-4.72 2.26-3.7 5l19.54 52.29a8.33 8.33 0 0 0 7.41 4.94l85.62-.5c3.07 0 4.72-2.26 3.7-5L97 71a8.35 8.35 0 0 0-7.38-4.92z" fill="#ffc621"/><path class="cls-1" d="M61.38 99.65l3.41 8.94h-4.47l-3.41-8.94a9.23 9.23 0 0 1-5.83-5.06c-1.14-3 .68-5.44 4.07-5.44a9.34 9.34 0 0 1 8.21 5.44c.88 2.3 0 4.27-1.98 5.06z"/></g></g></svg>