<svg xmlns="http://www.w3.org/2000/svg" viewBox="0 0 105.46 128.72"><defs><style>.cls-1{fill:#5b6670;}.cls-2{fill:#ffc629;}</style></defs><title>Asset 3</title><g id="Layer_2" data-name="Layer 2"><g id="Layer_1-2" data-name="Layer 1"><rect class="cls-1" x="32.98" y="68.05" width="42.96" height="45.68"/><path class="cls-2" d="M38,50V43.27a2.17,2.17,0,0,0-2.17-2.18H2.18A2.18,2.18,0,0,0,0,43.27v9.1A9,9,0,0,1,6.05,50Z"/><path class="cls-1" d="M91.47,49.86H76.33V31.75a16.63,16.63,0,0,0-16.6-16.61H47.14A16.63,16.63,0,0,0,30.53,31.75v6.69H15.39V31.75A31.79,31.79,0,0,1,47.14,0H59.73A31.78,31.78,0,0,1,91.47,31.75Z"/><path class="cls-2" d="M99.4,53H6.05a6.05,6.05,0,0,0-6,6.06v63.57a6.05,6.05,0,0,0,6.05,6.06H99.4a6.06,6.06,0,0,0,6.06-6.06V59.09A6.06,6.06,0,0,0,99.4,53ZM56.92,92.37v14.52H50.5V92.37a8.83,8.83,0,1,1,6.42,0Z"/></g></g></svg>