<svg xmlns="http://www.w3.org/2000/svg" viewBox="0 0 99.01 119.5"><defs><style>.cls-3{fill:#ffc629}.cls-4{fill:#5b6670}</style></defs><g id="Layer_2" data-name="Layer 2"><g id="Layer_1-2" data-name="Layer 1"><path fill="#fff" d="M22.94 72.94l-1.71 43.65h57.13l-1.35-32.74L94.92 76 93.2 57.86l-8.46.61-61.8 14.47z"/><path d="M80.69 44.53h10a2 2 0 0 1 1.6 1c2.1 6.77 4.17 13.56 6.07 20.39a22.69 22.69 0 0 1 .64 5.84v36.6c0 .36 0 .71-.06 1.21H86.59c-.41 0-.92-.49-1.2-.89a6.93 6.93 0 0 0-5.12-2.78c.75 4.64 3.22 8.78 2.57 13.64H16c-.8-4.83 1.82-8.93 2.6-13.52a6.21 6.21 0 0 0-5.17 2.71 2.3 2.3 0 0 1-1.55.89c-3.86.08-7.72 0-11.67 0a5.22 5.22 0 0 1-.21-1.06V69.94c0-5.12 2.07-9.79 3.46-14.6.9-3.11 2-6.19 2.83-9.31a1.72 1.72 0 0 1 2-1.52c4.46.08 5.09 0 9.74 0-.26 1.19-1.51 9.21-1.75 10.41-.5 2.53-.2 2.9 2.39 2.9h62.59c1.31 0 1.76-.71 1.55-1.9-.28-1.47-1.81-9.92-2.12-11.39zM23 115.1h21a20.79 20.79 0 0 0 0-2.1c-.16-1.75.56-2.43 2.34-2.34 2.2.11 4.41 0 6.61 0 1.37 0 2.07.56 2 2v2.39H76l-4.22-17.26H28.76c-.6 0-1.65.33-1.74.7-1.41 5.51-2.69 10.94-4.02 16.61zm4.35-39.32c0 3.16 2.11 5.2 5.4 5.22h33.63a4.92 4.92 0 0 0 5.19-5.21zm61.87-.44a3.49 3.49 0 0 0 3.44-3.16 3.41 3.41 0 0 0-3.45-3.33A3.49 3.49 0 0 0 85.74 72a3.42 3.42 0 0 0 3.45 3.34zm-.6-10.17c1.92 0 3.45-1.11 3.49-2.54s-1.6-2.69-3.56-2.67c-1.81 0-3.45 1.29-3.42 2.65s1.58 2.56 3.46 2.56z" fill="#595a5c"/><path class="cls-3" d="M41.21 28.12v-3.8A1.23 1.23 0 0 0 40 23.09H21.1a1.23 1.23 0 0 0-1.23 1.23v5.12a5 5 0 0 1 3.4-1.32z"/><path class="cls-4" d="M71.28 28h-8.51V17.84a9.33 9.33 0 0 0-9.33-9.33h-7.07A9.34 9.34 0 0 0 37 17.84v3.76h-8.48v-3.76A17.86 17.86 0 0 1 46.37 0h7.07a17.86 17.86 0 0 1 17.84 17.84z"/><path class="cls-3" d="M79.14 54.82V33.21a3.4 3.4 0 0 0-3.4-3.4H23.27a3.4 3.4 0 0 0-3.4 3.4v21.61z"/><path class="cls-4" d="M51.86 51.91a5 5 0 1 0-3.61 0v2.91h3.61z"/></g></g></svg>